# Blender v2.93.4 OBJ File: 'spitfire.blend'
# www.blender.org
mtllib wingflaps_left.mtl
o SF_StearingLeft_Plane.002
v 0.750038 0.024039 0.175082
v -0.746767 -0.056725 -0.344094
v 0.747883 0.023923 0.279167
v -0.747708 -0.056776 -0.052757
v 0.500570 0.010579 0.053714
v 0.251103 -0.002882 -0.051648
v 0.001635 -0.016343 -0.146651
v -0.247832 -0.029804 -0.220940
v -0.497300 -0.043264 -0.282046
v -0.498443 -0.043326 0.002564
v -0.249177 -0.029876 0.057884
v 0.000088 -0.016426 0.113205
v 0.249353 -0.002977 0.168526
v 0.498618 0.010473 0.223846
v 0.748923 0.044697 0.194700
v -0.747882 -0.036067 -0.324476
v 0.745540 0.067345 0.279167
v -0.750051 -0.013353 -0.052757
v 0.499456 0.031237 0.073331
v 0.249988 0.017776 -0.032030
v 0.000520 0.004315 -0.127033
v -0.248947 -0.009145 -0.201322
v -0.498415 -0.022606 -0.262428
v -0.500786 0.000097 0.002564
v -0.251520 0.013546 0.057884
v -0.002255 0.026996 0.113205
v 0.247010 0.040446 0.168526
v 0.496275 0.053896 0.223846
v 0.749054 0.023986 0.222612
v -0.747197 -0.056748 -0.211054
v 0.499679 0.010530 0.131405
v 0.250304 -0.002925 0.048895
v 0.000928 -0.016381 -0.027988
v -0.248447 -0.029837 -0.093614
v -0.497822 -0.043292 -0.152079
v 0.747208 0.058205 0.233272
v -0.749043 -0.022529 -0.200395
v 0.497832 0.044750 0.142064
v 0.248457 0.031294 0.059554
v -0.000918 0.017838 -0.017328
v -0.250293 0.004383 -0.082955
v -0.499668 -0.009073 -0.141419
vt 0.266466 0.560024
vt 0.266527 0.576872
vt 0.290904 0.570845
vt 0.290854 0.553599
vt 0.144530 0.600845
vt 0.144644 0.607006
vt 0.169021 0.600979
vt 0.168917 0.590908
vt 0.193397 0.594952
vt 0.193304 0.581919
vt 0.217774 0.588925
vt 0.217692 0.573543
vt 0.242151 0.582899
vt 0.242079 0.566394
vt 0.266466 0.561186
vt 0.290854 0.554761
vt 0.290904 0.570845
vt 0.266527 0.576872
vt 0.144530 0.602006
vt 0.168917 0.592069
vt 0.169021 0.600979
vt 0.144644 0.607006
vt 0.193304 0.583080
vt 0.193397 0.594952
vt 0.217692 0.574705
vt 0.217774 0.588925
vt 0.242079 0.567555
vt 0.242151 0.582899
vt 0.144434 0.595666
vt 0.168830 0.582444
vt 0.168830 0.584581
vt 0.144434 0.597804
vt 0.193226 0.570966
vt 0.193226 0.573103
vt 0.217623 0.560616
vt 0.217623 0.562753
vt 0.242019 0.552522
vt 0.242019 0.554660
vt 0.266415 0.545865
vt 0.266415 0.548002
vt 0.290812 0.539106
vt 0.290812 0.541243
vn 0.0539 -0.9985 0.0000
vn -0.0394 0.9972 -0.0630
vn -0.0117 0.9898 -0.1421
vn -0.0272 0.9950 -0.0959
vn -0.0335 0.9965 -0.0766
vn -0.0374 0.9970 -0.0677
vn -0.0391 0.9972 -0.0645
vn -0.2160 -0.0117 0.9763
vn 0.2970 0.6659 -0.6844
vn 0.2567 0.6728 -0.6939
vn 0.2299 0.6767 -0.6995
vn 0.1744 0.6830 -0.7093
vn 0.9989 0.0401 0.0251
vn 0.1380 0.6859 -0.7145
vn 0.1406 0.6857 -0.7141
vn -0.9986 -0.0534 -0.0034
vn -0.9986 -0.0520 -0.0034
vn 0.9984 0.0507 0.0232
vn -0.0266 0.9933 -0.1126
vn -0.0205 0.9928 -0.1180
vn -0.0076 0.9911 -0.1332
vn 0.0093 0.9861 -0.1661
vn 0.0510 0.9688 -0.2424
vn -0.0269 0.9936 -0.1100
usemtl Spitfire_Wings
s off
f 35/1/1 10/2/1 4/3/1 30/4/1
f 29/5/1 3/6/1 14/7/1 31/8/1
f 31/8/1 14/7/1 13/9/1 32/10/1
f 32/10/1 13/9/1 12/11/1 33/12/1
f 33/12/1 12/11/1 11/13/1 34/14/1
f 34/14/1 11/13/1 10/2/1 35/1/1
f 42/15/2 37/16/2 18/17/2 24/18/2
f 36/19/3 38/20/3 28/21/3 17/22/3
f 38/20/4 39/23/4 27/24/4 28/21/4
f 39/23/5 40/25/5 26/26/5 27/24/5
f 40/25/6 41/27/6 25/28/6 26/26/6
f 41/27/7 42/15/7 24/18/7 25/28/7
f 14/7/8 3/6/8 17/22/8 28/21/8
f 11/13/8 12/11/8 26/26/8 25/28/8
f 1/29/9 5/30/9 19/31/9 15/32/9
f 12/11/8 13/9/8 27/24/8 26/26/8
f 5/30/10 6/33/10 20/34/10 19/31/10
f 13/9/8 14/7/8 28/21/8 27/24/8
f 6/33/11 7/35/11 21/36/11 20/34/11
f 7/35/12 8/37/12 22/38/12 21/36/12
f 29/5/13 1/29/13 15/32/13 36/19/13
f 8/37/14 9/39/14 23/40/14 22/38/14
f 9/39/15 2/41/15 16/42/15 23/40/15
f 4/3/8 10/2/8 24/18/8 18/17/8
f 30/4/16 4/3/16 18/17/16 37/16/16
f 10/2/8 11/13/8 25/28/8 24/18/8
f 2/41/17 30/4/17 37/16/17 16/42/17
f 3/6/18 29/5/18 36/19/18 17/22/18
f 22/38/19 23/40/19 42/15/19 41/27/19
f 21/36/20 22/38/20 41/27/20 40/25/20
f 20/34/21 21/36/21 40/25/21 39/23/21
f 19/31/22 20/34/22 39/23/22 38/20/22
f 15/32/23 19/31/23 38/20/23 36/19/23
f 23/40/24 16/42/24 37/16/24 42/15/24
f 8/37/1 34/14/1 35/1/1 9/39/1
f 7/35/1 33/12/1 34/14/1 8/37/1
f 6/33/1 32/10/1 33/12/1 7/35/1
f 5/30/1 31/8/1 32/10/1 6/33/1
f 1/29/1 29/5/1 31/8/1 5/30/1
f 9/39/1 35/1/1 30/4/1 2/41/1
